<svg width="24" height="24" viewBox="0 0 24 24" fill="none" xmlns="http://www.w3.org/2000/svg">
  <path d="M19 3H5C4.46957 3 3.96086 3.21071 3.58579 3.58579C3.21071 3.96086 3 4.46957 3 5V19C3 19.5304 3.21071 20.0391 3.58579 20.4142C3.96086 20.7893 4.46957 21 5 21H19C19.5304 21 20.0391 20.7893 20.4142 20.4142C20.7893 20.0391 21 19.5304 21 19V5C21 4.46957 20.7893 3.96086 20.4142 3.58579C20.0391 3.21071 19.5304 3 19 3Z" stroke="white" stroke-width="2" stroke-linecap="round" stroke-linejoin="round" />
  <path d="M10.4 6H6.6C6.44087 6 6.28826 6.06321 6.17574 6.17574C6.06321 6.28826 6 6.44087 6 6.6V17.4C6 17.5591 6.06321 17.7117 6.17574 17.8243C6.28826 17.9368 6.44087 18 6.6 18H10.4C10.5591 18 10.7117 17.9368 10.8243 17.8243C10.9368 17.7117 11 17.5591 11 17.4V6.6C11 6.44087 10.9368 6.28826 10.8243 6.17574C10.7117 6.06321 10.5591 6 10.4 6V6ZM17.4 6H13.6C13.4409 6 13.2883 6.06321 13.1757 6.17574C13.0632 6.28826 13 6.44087 13 6.6V13.4C13 13.5591 13.0632 13.7117 13.1757 13.8243C13.2883 13.9368 13.4409 14 13.6 14H17.4C17.5591 14 17.7117 13.9368 17.8243 13.8243C17.9368 13.7117 18 13.5591 18 13.4V6.6C18 6.44087 17.9368 6.28826 17.8243 6.17574C17.7117 6.06321 17.5591 6 17.4 6V6Z" stroke="white" stroke-width="2" stroke-linecap="round" stroke-linejoin="round" />
</svg>